<svg xmlns="http://www.w3.org/2000/svg" width="230" height="37" fill="none" viewBox="0 0 230 37">
    <path fill="#3A4042" d="M17.625 35.25c9.735 0 17.626-7.89 17.626-17.625C35.25 7.891 27.36 0 17.625 0 7.891 0 0 7.891 0 17.625c0 9.735 7.891 17.626 17.625 17.626z"/>
    <path fill="#FFFCEE" d="M32.414 15.583c-4.818 0-6.963 5.602-7.029 5.777-.155.477-1.216 3.866-1.216 6.575 0 5.12-4.247 8.084-9.4 8.084-5.195 0-9.404-3.008-9.404-8.201 0 0 0-2.87.35-5.417-.83-.937-.95-2.439-.95-2.439s-.35.069-.67.335c-.039.033-.1 0-.093-.05.094-.802.906-2.502 2.513-2.747.281-1.137.814-2.34.935-2.569a9.66 9.66 0 0 1 8.52-5.101c1.353 0 2.64.277 3.809.78 3.25 0 4.82-1.726 4.82-1.726.73 0 1.61 1.91 1.202 2.621-.01.018.012.038.03.027 1.353-.863 2.116-2.99 2.116-2.99 1.547.773 2.358 4.247 1.528 5.077 2.669.411 3.386 1.964 2.94 1.964z"/>
    <path fill="#EAE6DA" d="M14.536 36.014c-5.088-.088-9.171-3.08-9.171-8.195 0 0-.043-.735.077-2.462 5.32-.837 2.705 6.788 9.094 10.657z"/>
    <path fill="#F25A70" d="M32.538 15.447c0 .085-.043.136-.124.136-.076 0-.15.002-.227.004-4.275.143-6.171 4.286-6.493 5.074l-.006.013c-.175.36-.273.61-.298.673.145-.639.242-1.252.242-1.857a9.616 9.616 0 0 0-1.635-5.38 9.705 9.705 0 0 0-4.216-3.5 9.421 9.421 0 0 0 .403-.011c.053 0 .107-.004.16-.007l.234-.019a7.589 7.589 0 0 0 1.029-.16c.049-.012.098-.023.145-.036.05-.01.102-.023.153-.038a4.14 4.14 0 0 0 .17-.047c.09-.027.18-.055.265-.083.068-.023.136-.047.2-.072.066-.024.132-.047.194-.075a7.146 7.146 0 0 0 .52-.234c.133-.068.257-.136.372-.205a5.288 5.288 0 0 0 .843-.613l.005-.004a.216.216 0 0 1 .279.002c.402.349 1.444 1.384 1.054 2.483l-.006.013c-.004.01 0 .02.006.024.007.006.017.01.026.004.04-.026.079-.051.12-.081a3.023 3.023 0 0 0 .357-.294 3.315 3.315 0 0 0 .22-.222l.012-.012c.015-.015.028-.03.04-.045l.043-.047c.005-.004.007-.008.009-.01a.983.983 0 0 0 .064-.077c.012-.015.025-.028.036-.043l.113-.143c.021-.027.043-.055.062-.083a.049.049 0 0 0 .013-.019s.004-.002.004-.004a.983.983 0 0 0 .06-.083c.023-.032.046-.064.066-.096.01-.01.017-.024.023-.034a6.19 6.19 0 0 0 .166-.258c.032-.049.06-.098.087-.147a4.114 4.114 0 0 0 .132-.234l.04-.073c.026-.046.05-.096.073-.14.02-.037.037-.073.056-.107 0-.002 0-.004.002-.006a2.428 2.428 0 0 0 .075-.156c.014-.032.03-.064.042-.094l.021-.046.013-.026.043-.1a.208.208 0 0 1 .353-.056c.318.365.897 1.08 1.31 1.89.011.025.017.051.028.076.366 1.125.411 2.324 0 2.812l-.04.045c.166.025.326.055.477.09.064.014.125.03.187.044a5.698 5.698 0 0 1 .266.075c.714.215 1.23.515 1.575.807a2.97 2.97 0 0 1 .095.085l.08.077c.025.025.05.05.074.079.023.025.047.05.066.076.036.043.068.085.096.126.083.126.13.236.142.322.002.017.004.032.004.047z"/>
    <path fill="#828282" d="M6.912 17.471c-1.87 0-2.81 1.912-2.91 2.776-.007.052.053.083.093.05.32-.266.67-.335.67-.335s.258 3.177 2.576 3.177c2.834 0 2.576-5.668-.43-5.668z"/>
    <path fill="#F4F1E4" d="M16.484 31.919c1.398.244 4.038.45 4.767-.28.473-.472-1.078-2.578-2.533-3.99-.364-.372-1.03-.646-1.674-.646a2.49 2.49 0 0 0-2.49 2.49c0 1.228.762 2.222 1.93 2.426z"/>
    <path fill="#3A4042" d="M30.753 13.045c.323-1.291-.337-2.972-1.932-4.808a1.063 1.063 0 0 0-1.781.278 8.155 8.155 0 0 1-.634 1.187c-.323-.61-.802-1.082-1.097-1.338a1.067 1.067 0 0 0-1.414.017c-.346.315-1.635 1.328-3.949 1.375a10.436 10.436 0 0 0-3.976-.778 10.507 10.507 0 0 0-9.27 5.55c-.118.22-.56 1.207-.875 2.267-1.612.545-2.539 2.244-2.67 3.352a.91.91 0 0 0 .979 1.012c.134.463.35 1.002.69 1.486-.307 2.473-.311 5.06-.311 5.173 0 2.736 1.06 5.055 3.064 6.705 1.839 1.514 4.393 2.348 7.192 2.348 6.036 0 10.252-3.675 10.252-8.936 0-2.57 1.02-5.833 1.168-6.292.15-.39 2.1-5.208 6.225-5.208a.97.97 0 0 0 .973-.905c.066-.857-.906-1.93-2.634-2.485zm-9.552 20.604c-1.633 1.322-3.918 2.05-6.433 2.05-6.274 0-9.082-3.958-9.082-7.88 0-.027.003-2.451.272-4.786.375.26.83.425 1.383.425.73 0 1.337-.322 1.755-.932.353-.515.547-1.215.547-1.972 0-1.64-.947-3.38-2.702-3.4.283-.966.691-1.884.792-2.072a9.337 9.337 0 0 1 8.238-4.933 9.27 9.27 0 0 1 3.683.754 9.356 9.356 0 0 1 4.076 3.384 9.297 9.297 0 0 1 1.581 5.203c0 .995-.276 2.011-.596 3.188-.405 1.489-.864 3.175-.864 5.257 0 2.336-.916 4.311-2.65 5.714zM8.198 20.55c-1.721-1.507-3.285-.988-3.53-.893-.04.01-.107.028-.194.06.31-.8 1.084-1.925 2.438-1.925 1.373 0 2.092 1.39 2.092 2.763 0 .629-.154 1.2-.435 1.61-.298.435-.71.655-1.228.655-.82 0-1.445-.466-1.86-1.386a5.135 5.135 0 0 1-.363-1.245c.444-.102 1.49-.183 2.66.841a.318.318 0 0 0 .45-.03.32.32 0 0 0-.03-.45zM24.47 9.01a.209.209 0 0 1 .142-.055c.05 0 .1.017.14.053.356.307 1.206 1.148 1.136 2.096-.356.28-.758.466-1.2.466a.32.32 0 0 0 0 .639c1.843 0 3.015-2.273 3.413-3.19.671.551 1.164 1.725 1.326 2.722.11.672.07 1.25-.096 1.542a8.797 8.797 0 0 0-1.209-.082.32.32 0 0 0 0 .64c2.47 0 3.439.912 3.792 1.439-3.203.23-5.085 2.637-5.964 4.159a9.93 9.93 0 0 0-1.689-5.509 9.994 9.994 0 0 0-3.795-3.35c2.285-.18 3.606-1.208 4.004-1.57z"/>
    <path fill="#3A4042" d="M12.97 22.693a1.584 1.584 0 1 0 0-3.168 1.584 1.584 0 0 0 0 3.168zM19.024 32.468a16.63 16.63 0 0 1-2.595-.235c-1.313-.23-2.195-1.33-2.195-2.74 0-1.55 1.26-2.81 2.81-2.81.715 0 1.461.292 1.903.743 1.04 1.01 2.703 2.983 2.71 3.958a.649.649 0 0 1-.18.481c-.468.469-1.465.603-2.453.603zm-2.485-.864c1.798.314 3.968.328 4.487-.19.107-.306-.922-1.975-2.53-3.535-.323-.33-.918-.557-1.452-.557-1.197 0-2.17.974-2.17 2.17 0 1.09.669 1.938 1.665 2.112zM42.82 18.776c0-8.77 6.515-15.498 15.498-15.498 5.408 0 10.176 2.682 12.773 6.897l-5.875 3.407c-1.32-2.3-3.875-3.662-6.898-3.662-5.279 0-8.685 3.534-8.685 8.856s3.406 8.856 8.685 8.856c3.023 0 5.62-1.363 6.898-3.662l5.876 3.407c-2.555 4.215-7.324 6.897-12.774 6.897-8.983 0-15.497-6.727-15.497-15.498zM73.22 23.034c0-6.344 5.024-11.24 11.283-11.24 6.258 0 11.282 4.895 11.282 11.24 0 6.344-5.024 11.24-11.282 11.24-6.259 0-11.283-4.896-11.283-11.24zm16.179 0c0-3.023-2.129-5.025-4.896-5.025-2.768 0-4.897 2.002-4.897 5.024 0 3.024 2.13 5.025 4.897 5.025 2.767 0 4.896-2.001 4.896-5.024zM99.404 2.597h6.386v31.08h-6.386V2.598zM110.473 2.597h6.386v31.08h-6.386V2.598zM143.384 12.39v21.288h-6.387v-2.001c-1.405 1.617-3.491 2.597-6.343 2.597-5.578 0-10.176-4.896-10.176-11.24 0-6.345 4.598-11.24 10.176-11.24 2.852 0 4.938.979 6.343 2.596v-2h6.387zm-6.387 10.643c0-3.193-2.128-5.194-5.066-5.194-2.938 0-5.067 2.001-5.067 5.195 0 3.193 2.129 5.194 5.067 5.194s5.066-2.001 5.066-5.195zM170.972 23.034c0 6.344-4.598 11.24-10.175 11.24-2.853 0-4.939-.98-6.344-2.598v2.002h-6.387V3.874h6.387V14.39c1.405-1.617 3.491-2.597 6.344-2.597 5.577 0 10.175 4.897 10.175 11.24zm-6.386 0c0-3.194-2.129-5.195-5.067-5.195-2.937 0-5.066 2.001-5.066 5.195 0 3.193 2.129 5.194 5.066 5.194 2.938 0 5.067-2.001 5.067-5.195zM179.335 33.124l-2.81-2.81V15.327l2.81-2.81h4.087l2.811 2.81v3.62h-1.661V15.88l-1.916-1.916h-2.554l-1.916 1.916v13.88l1.916 1.915h2.554l1.916-1.916v-3.065h1.661v3.619l-2.811 2.81h-4.087zM193.087 33.124l-2.81-2.81V15.327l2.81-2.81h4.683l2.81 2.81v14.987l-2.81 2.81h-4.683zm.766-1.448h3.151l1.916-1.916V15.88l-1.916-1.915h-3.151l-1.915 1.916v13.88l1.915 1.915zM207.648 33.124l-2.81-2.81V15.327l2.81-2.81h3.193l2.682 2.682V3.747h1.661v29.377h-1.533l-.085-2.725-2.725 2.725h-3.193zm.766-1.448h1.916l3.193-3.193V17.158l-3.193-3.193h-1.916l-1.916 1.916v13.88l1.916 1.915zM222.677 33.124l-2.81-2.81V15.327l2.81-2.81h4.513l2.81 2.81v7.792h-8.472v6.641l1.915 1.916h2.981l1.915-1.916v-2.554H230v3.108l-2.81 2.81h-4.513zm-1.15-11.453h6.812v-5.79l-1.915-1.916h-2.981l-1.916 1.916v5.79z"/>
</svg>
